<?xml version="1.0" encoding="UTF-8"?>
<svg id="Calque_1" data-name="Calque 1" xmlns="http://www.w3.org/2000/svg" viewBox="0 0 286 266">
  <path d="m79.04,232.91c-.7-.33-1.34-.71-1.95-1.19l2.73,2.11c-.68-.56-1.28-1.18-1.83-1.88l2.11,2.73c-.84-1.11-1.5-2.32-2.05-3.59l1.36,3.22c-1.47-3.53-2.09-7.31-2.59-11.08l.48,3.59c-2.06-15.76-1.03-31.71-2.54-47.51-.83-8.68-2.1-17.47-5.13-25.69-1.68-4.55-3.64-9.05-6.12-13.23s-5.4-7.97-8.38-11.76c-5.31-6.76-11.29-12.94-16.56-19.73l2.11,2.73c-4.35-5.65-8.11-11.73-10.89-18.3l1.36,3.22c-1.99-4.78-3.44-9.77-4.16-14.9l.48,3.59c-.59-4.42-.63-8.88-.07-13.31l-.48,3.59c.52-3.82,1.47-7.55,2.96-11.11l-1.36,3.22c1.21-2.82,2.72-5.46,4.58-7.9l-2.11,2.73c1.82-2.33,3.91-4.4,6.24-6.22l-2.73,2.11c2.6-1.99,5.44-3.61,8.45-4.89l-3.22,1.36c3.47-1.44,7.1-2.41,10.82-2.94l-3.59.48c4.23-.57,8.47-.53,12.7.02l-3.59-.48c6.1.84,11.99,2.66,17.66,5.05l-3.22-1.36c6.45,2.76,12.56,6.2,18.52,9.89,7.2,4.46,17.88.31,19.83-8.07.67-2.88,1.58-5.69,2.71-8.42l-1.36,3.22c1.8-4.25,4.13-8.23,6.94-11.9l-2.11,2.73c2.85-3.68,6.14-6.98,9.82-9.82l-2.73,2.11c3.35-2.55,6.97-4.7,10.83-6.36l-3.22,1.36c3.7-1.56,7.57-2.65,11.56-3.19l-3.59.48c1.93-.24,3.87-.36,5.81-.34,3.44.03,7.12-1.53,9.55-3.95s4.1-6.18,3.95-9.55-1.3-7.11-3.95-9.55-5.88-3.92-9.55-3.95c-22.15-.2-42.83,13.52-53.7,32.42-3.12,5.43-5.57,11.43-6.99,17.53l19.83-8.07c-5.58-3.45-11.29-6.71-17.3-9.36-6.84-3.02-13.81-5.7-21.24-6.81-3.89-.58-7.79-1.12-11.74-1.04-3.73.07-7.49.57-11.15,1.25-6.06,1.14-12.14,3.52-17.37,6.78C11.36,40.78,2.91,53.79.88,68.36c-.57,4.12-1.03,8.17-.84,12.33s.77,8.31,1.65,12.36c1.55,7.07,4.41,13.96,7.84,20.32,7.09,13.1,17.95,23.36,27,35.02l-2.11-2.73c3.74,4.86,7.04,10.01,9.45,15.66l-1.36-3.22c2.7,6.45,4.26,13.27,5.19,20.18l-.48-3.59c1.32,10.13,1.36,20.36,1.63,30.55.14,5.14.33,10.27.77,15.39.31,3.56.77,7.1,1.27,10.64.32,2.29.69,4.57,1.3,6.81.32,1.17.72,2.31,1.18,3.43.83,2.03,1.61,4.15,2.83,5.99,1.14,1.73,2.4,3.48,3.91,4.9s3.35,2.92,5.3,3.83c1.55.99,3.22,1.52,5.02,1.6,1.79.4,3.59.32,5.38-.24,3.13-.86,6.53-3.28,8.07-6.2,1.66-3.13,2.49-6.93,1.36-10.4-1.02-3.17-3.07-6.61-6.2-8.07h0Z"/>
  <path d="m221.01,256.6c1.81-.85,3.41-2.22,4.92-3.51s2.74-3.08,3.88-4.68c1.82-2.55,2.99-5.64,3.95-8.59.67-2.06,1.09-4.18,1.43-6.32.56-3.6,1.04-7.22,1.39-10.85.99-10.27.91-20.6,1.27-30.9.2-5.79.55-11.58,1.32-17.33l-.48,3.59c.95-6.93,2.54-13.75,5.26-20.21l-1.36,3.22c2.44-5.69,5.78-10.87,9.55-15.77l-2.11,2.73c8.09-10.43,17.6-19.75,24.46-31.12,7.4-12.28,12.19-26.87,11.44-41.32-.75-14.5-6.29-29.36-17.96-38.58-2.91-2.3-5.82-4.48-9.15-6.12s-6.75-3.06-10.29-4.04c-5.93-1.65-12.38-2.4-18.53-1.98-8.24.57-16.18,2.46-23.79,5.63s-15.09,7.08-22.22,11.54c6.61,2.69,13.22,5.38,19.83,8.07-2.54-11.07-8.24-21.24-15.79-29.66s-16.67-14.1-26.91-17.62C155.52.87,149.4-.05,143.49,0c-3.48.03-7.08,1.48-9.55,3.95-2.34,2.34-4.1,6.18-3.95,9.55s1.3,7.11,3.95,9.55,5.9,3.99,9.55,3.95c1.93-.02,3.85.1,5.77.34l-3.59-.48c3.84.53,7.58,1.57,11.15,3.07l-3.22-1.36c3.96,1.69,7.66,3.89,11.06,6.51l-2.73-2.11c3.56,2.78,6.75,6,9.53,9.56l-2.11-2.73c2.81,3.66,5.14,7.64,6.96,11.88l-1.36-3.22c1.19,2.85,2.14,5.78,2.83,8.79,1.92,8.36,12.65,12.56,19.83,8.07,6.09-3.81,12.36-7.37,18.99-10.18l-3.22,1.36c5.42-2.26,11.05-3.98,16.88-4.8l-3.59.48c4.08-.54,8.18-.59,12.27-.07l-3.59-.48c3.82.52,7.54,1.51,11.1,3l-3.22-1.36c2.99,1.29,5.8,2.92,8.38,4.91l-2.73-2.11c2.32,1.82,4.39,3.9,6.19,6.23l-2.11-2.73c1.85,2.44,3.35,5.1,4.54,7.92l-1.36-3.22c1.42,3.44,2.35,7.04,2.88,10.73l-.48-3.59c.61,4.57.59,9.19-.01,13.76l.48-3.59c-.74,5.29-2.24,10.42-4.3,15.34l1.36-3.22c-2.8,6.57-6.56,12.65-10.91,18.31l2.11-2.73c-4.7,6.08-9.96,11.69-14.78,17.68-2.99,3.71-5.94,7.5-8.49,11.53s-4.64,8.57-6.49,13.13c-3.31,8.16-4.7,16.86-5.68,25.57-.87,7.81-1.04,15.67-1.22,23.52-.2,8.98-.41,17.98-1.6,26.89l.48-3.59c-.5,3.64-1.11,7.28-2.52,10.69l1.36-3.22c-.55,1.28-1.21,2.48-2.04,3.6l2.11-2.73c-.61.78-1.29,1.47-2.07,2.08l2.73-2.11c-.53.38-1.09.71-1.68.99-2.9,1.37-5.38,5.09-6.2,8.07-.89,3.23-.49,7.53,1.36,10.4s4.63,5.42,8.07,6.2l3.59.48c2.44,0,4.71-.62,6.81-1.84h0Z"/>
  <rect x="136.49" y="172.63" width="14" height="50.85"/>
  <path d="m68.9,257.8c19.16,4.19,38.74,6.81,58.33,7.78,18.58.92,37.23.3,55.71-1.86,11.46-1.34,22.86-3.12,34.14-5.52,3.2-.68,6.45-3.44,8.07-6.2s2.41-7.16,1.36-10.4-3.08-6.42-6.2-8.07c-3.32-1.75-6.71-2.15-10.4-1.36-8.23,1.75-16.53,3.19-24.87,4.32l3.59-.48c-23.09,3.09-46.48,3.79-69.71,2.06-6.58-.49-13.14-1.18-19.68-2.06l3.59.48c-8.97-1.21-17.89-2.79-26.74-4.72-3.54-.77-7.22-.5-10.4,1.36-2.8,1.64-5.47,4.85-6.2,8.07-.79,3.46-.62,7.33,1.36,10.4,1.85,2.87,4.63,5.45,8.07,6.2h0Z"/>
  <rect x="169.49" y="172.63" width="14" height="50.85"/>
  <rect x="103.49" y="172.63" width="14" height="50.85"/>
</svg>